<svg width="1125" height="690" viewBox="0 0 1125 690" fill="none" xmlns="http://www.w3.org/2000/svg">
<g clip-path="url(#clip0_878_13101)">
<path d="M557.1 888.385C800.546 888.385 997.898 691.166 997.898 447.884C997.898 204.602 800.546 7.38232 557.1 7.38232C313.655 7.38232 116.303 204.602 116.303 447.884C116.303 691.166 313.655 888.385 557.1 888.385Z" fill="#82B1C4"/>
<path d="M559.4 178.681L593.108 202.311L628.901 177.441L594.151 188.567L559.4 178.681Z" fill="#C3C2C2"/>
<path d="M692.086 562.005C717.818 536.178 726.527 510.52 727.006 482.636C727.879 431.179 700.738 372.145 700.738 290.635C700.738 230.756 669.736 205.661 583.211 205.661C489.048 205.661 465.684 285.706 465.684 285.706C465.684 285.706 459.962 379.665 459.962 390.367C459.962 459.625 394.914 450.19 394.914 531.39C394.914 548.599 451.282 558.372 451.282 562.005H692.114H692.086Z" fill="#464545"/>
<path d="M733.607 643.258C733.607 643.258 727.829 700.292 749.672 716.093C758.916 722.796 822.866 690.547 822.866 690.547L771.148 500.715C767.259 485.956 753.561 475.901 738.286 476.577L586.008 483.478L405.348 498.969C399.091 499.504 393.539 503.137 390.495 508.629L259.552 746.99L340.046 769.128L432.94 659.847L449.062 814.868L714.808 805.771L734.988 659.115" fill="#6F5A86"/>
<path d="M738.307 476.577C753.583 475.901 767.28 485.956 771.169 500.715L780.162 533.673" stroke="#010101" stroke-miterlimit="10"/>
<path d="M701.02 288.803C701.02 230.558 660.238 182.17 606.237 171.214C585.296 166.961 556.379 170.735 537.863 178.34C495.305 195.802 465.937 239.12 465.937 288.803C465.937 354.991 518.557 408.646 583.464 408.646C648.372 408.646 700.992 354.991 700.992 288.803" fill="#464545"/>
<path d="M726.225 463.824C721.913 417.943 701.818 365.162 700.775 296.101C700.916 293.679 701 291.257 701 288.806C701 230.561 660.218 182.173 606.218 171.217" stroke="#010101" stroke-miterlimit="10"/>
<path d="M582.119 513.054C582.119 513.054 534.262 501.985 534.262 475.566V319.926C534.262 293.507 555.682 272.102 582.119 272.102C608.555 272.102 629.975 293.507 629.975 319.926V470.215C629.975 496.634 582.119 513.026 582.119 513.026" fill="#D8A486"/>
<path d="M438.657 496.318C464.952 512.851 520.898 522.85 574.391 519.639C627.884 516.428 677.428 503.103 702.145 477.754C701.046 477.754 673.599 478.715 672.528 478.743C639.214 479.757 627.095 484.32 629.603 442.411C630.393 429.145 534.313 443.875 533.89 455.338C532.989 479.645 533.496 486.489 494.715 491.023C492.742 491.249 440.799 496.093 438.6 496.318" fill="#D8A486"/>
<path d="M461.321 506.689C490.745 516.8 533.303 522.095 574.396 519.645C620.335 516.885 664.021 506.154 691.105 487.143" stroke="#010101" stroke-miterlimit="10"/>
<path d="M539.81 400.362V418.106C539.81 418.106 549.9 453.058 574.702 461.029C599.504 469 623.657 465.705 630.844 466.747C629.942 464.071 629.97 462.55 629.97 449.679C629.97 438.3 630.055 386.702 630.055 386.702L539.81 400.362Z" fill="#AD6B55"/>
<path d="M511.318 385.801C514.897 402.644 550.437 445.793 579.664 445.709C615.683 445.596 652.294 399.997 655.592 381.774C659.171 361.946 661.003 326.092 661.059 288.21C661.116 256.749 638.23 199.799 608.045 199.799C577.86 199.799 508.584 257.228 506.865 288.21C506.865 327.331 503.511 349.046 511.289 385.801" fill="#D8A486"/>
<path d="M674.076 338.767C669.848 325.98 654.065 326.093 641.269 330.317C628.474 334.542 621.541 348.343 625.768 361.13C629.996 373.917 643.806 380.846 656.63 376.621C669.425 372.396 678.331 351.554 674.104 338.767" fill="#D8A486"/>
<path d="M665.319 329.418C669.35 331.052 672.506 334.009 674.085 338.769C678.256 351.331 670.759 369.272 657.315 376.341" stroke="#010101" stroke-miterlimit="10"/>
<path d="M564.145 376.229C569.951 378.652 576.349 380.003 583.056 380.003C589.764 380.003 596.162 378.652 601.968 376.229M511.582 385.552C510.905 382.369 510.342 379.299 509.834 376.314L508.735 368.343M599.685 441.206C628.32 429.461 653.178 396.367 655.884 381.496L657.857 370.399" stroke="#010101" stroke-linejoin="round"/>
<path d="M617.806 397.777C606.025 407.072 596.498 413.183 584.915 413.155C571.471 413.155 556.393 405.832 550.305 400.368L550.136 400.143C560.536 386.229 605.405 388.426 617.806 397.777Z" fill="#B0675D"/>
<path d="M565.739 409.35C571.123 411.772 577.013 413.124 583.213 413.124C589.414 413.124 595.333 411.772 600.688 409.35M616.161 399.182C605 401.323 594.149 400.619 586.286 400.619H583.044C575.181 400.619 564.33 401.295 553.169 399.182" stroke="#010101" stroke-linejoin="round"/>
<path d="M541.015 340.742C542.509 337.813 546.089 336.658 549.02 338.151C551.951 339.644 553.106 343.221 551.613 346.15C550.119 349.079 546.539 350.234 543.608 348.741C540.677 347.248 539.522 343.671 541.015 340.742Z" fill="#010101"/>
<path d="M616.752 340.742C618.246 337.813 621.825 336.658 624.756 338.151C627.687 339.644 628.843 343.221 627.349 346.15C625.855 349.079 622.276 350.234 619.345 348.741C616.414 347.248 615.258 343.671 616.752 340.742Z" fill="#010101"/>
<path d="M524.435 305.563C535.314 303.169 547.461 303.197 560.172 305.366" stroke="#010101" stroke-linejoin="round"/>
<path d="M570.957 326.209C570.957 326.209 576.34 322.266 584.063 322.266C591.785 322.266 596.661 326.209 596.661 326.209M508.248 333.391C508.248 318.182 519.324 311.141 537.305 311.141C555.287 311.141 573.409 318.379 573.409 336.912C573.409 349.53 560.36 366.232 540.828 366.232C521.297 366.232 508.248 351.67 508.248 333.419V333.391ZM659.37 333.391C659.37 318.182 648.294 311.141 630.312 311.141C612.331 311.141 594.209 318.379 594.209 336.912C594.209 349.53 607.258 366.232 626.789 366.232C646.321 366.232 659.37 351.67 659.37 333.419V333.391Z" stroke="#67293D" stroke-miterlimit="10"/>
<path d="M643.981 305.563C633.102 303.169 620.955 303.197 608.244 305.366" stroke="#010101" stroke-linejoin="round"/>
<path d="M506.561 330.604C507.322 254.84 621.411 212.705 621.439 212.705L617.775 183.638L489.059 215.662C489.059 215.662 492.638 296.045 506.561 330.632" fill="#464545"/>
<path d="M660.494 330.601C659.733 256.161 602.406 197.127 602.406 197.127L596.629 184.115L677.996 215.631C677.996 215.631 674.417 296.014 660.494 330.601Z" fill="#464545"/>
<path d="M537.893 178.34C496.575 195.323 467.658 236.67 466.052 284.578C465.826 285.283 465.685 285.677 465.685 285.677C465.685 285.677 459.316 373.129 454.102 407.491C448.888 441.852 376.511 469.933 385.023 527.896M485.922 333.248C487.641 251.907 615.681 205.406 615.681 205.378M506.524 330.6C507.285 254.836 621.374 212.701 621.402 212.701M660.465 330.6C659.958 280.325 633.634 237.092 616.611 214.307" stroke="#010101" stroke-miterlimit="10"/>
<path d="M730.416 689.004L732.677 672.624L736.069 689.004M534.266 441.658V454.304C534.068 454.67 533.956 455.037 533.956 455.375C533.054 479.653 533.561 486.525 494.808 491.06C493.737 491.172 477.926 492.665 463.327 494.045L405.408 499.002C399.152 499.537 393.599 503.171 390.556 508.663L330.695 617.27M717.412 477.192C716.313 477.192 673.607 478.752 672.536 478.78C645.903 479.568 632.825 482.638 629.922 462.388V419.689M408.717 689.482L432.972 659.881L437.848 689.482" stroke="#010101" stroke-miterlimit="10"/>
<path d="M478.787 492.409V511.645" stroke="#010101" stroke-miterlimit="10"/>
<path d="M669.602 478.862V499.056" stroke="#010101" stroke-miterlimit="10"/>
<path d="M781.939 541.217L825.935 697.476" stroke="#010101" stroke-miterlimit="10"/>
<path d="M328.431 621.221L318.82 639.295" stroke="#010101" stroke-miterlimit="10"/>
<path d="M-0.238281 689.291H46.0398" stroke="#443459" stroke-miterlimit="10"/>
<path d="M113.453 689.291H1225.51" stroke="#114659" stroke-miterlimit="10"/>
<path d="M418.176 668.833H736.571C736.571 680.099 727.411 689.252 716.138 689.252H438.638C427.364 689.252 418.204 680.099 418.204 668.833H418.176Z" fill="#ABCDD9" stroke="#114659" stroke-miterlimit="10"/>
<path d="M480.332 523.502H674.403C701.882 523.502 706.112 527.734 706.112 555.195V689.282H448.623V555.195C448.623 527.734 452.852 523.502 480.332 523.502Z" fill="#ABCDD9" stroke="#114659" stroke-miterlimit="10"/>
<path d="M591.85 591.691C594.387 594.198 596.275 597.324 597.261 600.845C597.741 602.619 598.022 604.478 598.022 606.394" fill="#CFBFDE"/>
<path d="M591.85 591.691C594.387 594.198 596.275 597.324 597.261 600.845C597.741 602.619 598.022 604.478 598.022 606.394" stroke="#114659" stroke-miterlimit="10"/>
<path d="M586.954 624.674C584.079 626.167 580.838 627.012 577.371 627.012C565.957 627.012 556.712 617.773 556.712 606.367C556.712 594.96 565.957 585.722 577.371 585.722" fill="#ABCDD9"/>
<path d="M586.954 624.674C584.079 626.167 580.838 627.012 577.371 627.012C565.957 627.012 556.712 617.773 556.712 606.367C556.712 594.96 565.957 585.722 577.371 585.722" stroke="#114659" stroke-miterlimit="10"/>
<path d="M781.939 637.456C781.939 653.003 794.537 665.593 810.095 665.593C825.652 665.593 838.251 653.003 838.251 637.456C838.251 621.909 825.652 609.319 810.095 609.319C794.537 609.319 781.939 621.909 781.939 637.456ZM795.834 637.456C795.834 629.598 802.231 623.205 810.095 623.205C817.958 623.205 824.356 629.598 824.356 637.456C824.356 645.314 817.958 651.708 810.095 651.708C802.231 651.708 795.834 645.314 795.834 637.456Z" fill="#ABCDD9"/>
<path d="M795.84 661.737C800.012 664.187 804.887 665.596 810.101 665.596C825.659 665.596 838.257 653.006 838.257 637.459M795.84 637.459C795.84 629.601 802.238 623.207 810.101 623.207C817.965 623.207 824.363 629.601 824.363 637.459" stroke="#114659" stroke-miterlimit="10"/>
<path d="M885.49 603.209H812.353V689.281H885.49V603.209Z" fill="#ABCDD9" stroke="#114659" stroke-miterlimit="10"/>
<path d="M870.417 595.634C870.417 595.634 850.519 569.328 853.253 543.36C855.987 517.392 879.069 488.072 868.641 464.216" stroke="white" stroke-miterlimit="10"/>
<path d="M846.367 595.128C846.367 595.128 835.122 574.483 837.884 548.487C840.618 522.519 880.244 471.765 820.945 401.071" stroke="white" stroke-miterlimit="10"/>
<path d="M834.158 453.429C829.845 437.459 821.08 419.997 805.213 401.098" stroke="white" stroke-miterlimit="10"/>
<path d="M1032.93 351.451L1158.07 522.16L1073.68 653.324L1048.04 649.578L1130.22 525.089L1010.44 360.154" fill="#337189"/>
<path d="M1032.93 351.451L1158.07 522.16L1073.68 653.324L1048.04 649.578L1130.22 525.089L1010.44 360.154" stroke="#114659" stroke-miterlimit="10"/>
<path d="M1026.47 351.455L983.179 339.626L974.358 359.341L1020.41 373.452" fill="#337189"/>
<path d="M1026.47 351.455L983.179 339.626L974.358 359.341L1020.41 373.452" stroke="#114659" stroke-miterlimit="10"/>
<path d="M986.284 347.541L1007.42 326.417C1017.06 316.784 1017.06 301.153 1007.42 291.52C997.783 281.888 982.141 281.888 972.502 291.52L951.364 312.644C922.391 298.28 886.315 303.124 862.161 327.234L919.572 384.606L971.656 436.655C995.782 412.545 1000.63 376.466 986.256 347.512L986.284 347.541Z" fill="#ABCDD9"/>
<path d="M971.684 436.683C995.81 412.574 1000.66 376.494 986.284 347.541L1007.42 326.417C1017.06 316.784 1017.06 301.153 1007.42 291.52C997.783 281.888 982.141 281.888 972.502 291.52L951.364 312.644C922.391 298.28 886.315 303.124 862.161 327.234L919.572 384.606" stroke="#114659" stroke-miterlimit="10"/>
<path d="M971.172 329.061C971.172 329.061 980.219 337.313 986.279 347.537" stroke="#114659" stroke-miterlimit="10"/>
<path d="M1103.53 673.211H1030.79V671.324C1030.79 650.397 1047.78 633.414 1068.73 633.414C1087.92 633.414 1103.53 648.989 1103.53 668.198V673.211Z" fill="#ABCDD9" stroke="#114659" stroke-miterlimit="10"/>
<path d="M1036.08 657.44H982.557C967.451 657.44 955.191 669.691 955.191 684.788V689.266H1129.03V673.409C1129.03 664.594 1121.87 657.44 1113.05 657.44H1087.2" fill="#ABCDD9"/>
<path d="M1036.08 657.44H982.557C967.451 657.44 955.191 669.691 955.191 684.788V689.266H1129.03V673.409C1129.03 664.594 1121.87 657.44 1113.05 657.44H1087.2" stroke="#114659" stroke-miterlimit="10"/>
<path d="M996.072 660.795L983.953 660.852C980.965 660.852 978.006 661.528 975.3 662.851" fill="#CFBFDE"/>
<path d="M996.072 660.795L983.953 660.852C980.965 660.852 978.006 661.528 975.3 662.851" stroke="#114659" stroke-miterlimit="10"/>
<path d="M1140.42 543.282C1151.21 543.282 1159.95 534.544 1159.95 523.764C1159.95 512.984 1151.21 504.245 1140.42 504.245C1129.63 504.245 1120.89 512.984 1120.89 523.764C1120.89 534.544 1129.63 543.282 1140.42 543.282Z" fill="#ABCDD9"/>
<path d="M1026.47 382.803C1037.26 382.803 1046 374.064 1046 363.284C1046 352.505 1037.26 343.766 1026.47 343.766C1015.68 343.766 1006.94 352.505 1006.94 363.284C1006.94 374.064 1015.68 382.803 1026.47 382.803Z" fill="#ABCDD9"/>
<path d="M1046 363.284C1046 352.497 1037.26 343.766 1026.47 343.766C1015.68 343.766 1006.94 352.497 1006.94 363.284" stroke="#114659" stroke-miterlimit="10"/>
<path d="M1026.47 375.11C1033.01 375.11 1038.31 369.814 1038.31 363.281C1038.31 356.748 1033.01 351.451 1026.47 351.451C1019.93 351.451 1014.63 356.748 1014.63 363.281C1014.63 369.814 1019.93 375.11 1026.47 375.11Z" fill="#337189"/>
<path d="M971.183 299.768C971.183 299.768 975.523 295.346 977.524 293.459C979.525 291.572 990.094 285.714 999.705 293.065" fill="#ABCDD9"/>
<path d="M971.183 299.768C971.183 299.768 975.523 295.346 977.524 293.459C979.525 291.572 990.094 285.714 999.705 293.065" stroke="#114659" stroke-miterlimit="10"/>
<path d="M891.524 347.538L873.289 328.471C873.289 328.471 876.474 324.978 881.434 323.232" fill="#ABCDD9"/>
<path d="M891.524 347.538L873.289 328.471C873.289 328.471 876.474 324.978 881.434 323.232" stroke="#114659" stroke-miterlimit="10"/>
</g>
<defs>
<clipPath id="clip0_878_13101">
<rect width="1226" height="690" fill="white"/>
</clipPath>
</defs>
</svg>
