<svg width="555" height="333" viewBox="0 0 555 333" fill="none" xmlns="http://www.w3.org/2000/svg">
<g clip-path="url(#clip0_1127_14804)">
<path d="M-87.3119 368.896L640.034 368.896V-35.8971L-87.3119 -35.8971V368.896Z" fill="#ABCDD9"/>
<path d="M64.1196 216.662C64.1196 269.354 83.5454 317.485 115.599 354.226C153.702 397.9 209.643 324.452 271.996 324.452C335.346 324.452 392.078 397.013 430.207 352.119C461.176 315.655 479.872 268.351 479.872 216.662C479.872 101.335 386.803 7.8457 271.996 7.8457C157.188 7.8457 64.1196 101.331 64.1196 216.662Z" fill="#82B1C4"/>
<path d="M75.1678 30.4053V57.2453C75.1678 64.2762 80.8447 69.9787 87.8439 69.9787H180.797L190.754 85.6158V69.9787V64.699V30.4053C190.754 23.3744 185.077 17.6719 178.078 17.6719H87.8401C80.8409 17.6719 75.1641 23.3744 75.1641 30.4053H75.1678Z" fill="#82B1C4"/>
<path d="M98.8757 17.6719H87.846C80.8468 17.6719 75.1699 23.3744 75.1699 30.4053V57.2453C75.1699 64.3698 80.9213 70.1471 88.0136 70.1471H119.181" stroke="#1D4721" stroke-miterlimit="10"/>
<path d="M127.444 17.6719H110.901" stroke="#1D4721" stroke-miterlimit="10"/>
<path d="M157.655 69.9787H180.798L190.755 85.6158V69.9787V64.699V30.4053C190.755 23.3744 185.078 17.6719 178.079 17.6719H134.105" stroke="#114659" stroke-miterlimit="10"/>
<path d="M115.596 45.1477C115.596 48.4218 112.955 51.0748 109.696 51.0748C106.436 51.0748 103.795 48.4218 103.795 45.1477C103.795 41.8737 106.436 39.2207 109.696 39.2207C112.955 39.2207 115.596 41.8737 115.596 45.1477Z" fill="white" stroke="#114659" stroke-miterlimit="10"/>
<path d="M130.723 51.0748C133.982 51.0748 136.623 48.4212 136.623 45.1477C136.623 41.8743 133.982 39.2207 130.723 39.2207C127.464 39.2207 124.823 41.8743 124.823 45.1477C124.823 48.4212 127.464 51.0748 130.723 51.0748Z" fill="white" stroke="#114659" stroke-miterlimit="10"/>
<path d="M157.651 45.1477C157.651 48.4218 155.01 51.0748 151.75 51.0748C148.491 51.0748 145.85 48.4218 145.85 45.1477C145.85 41.8737 148.491 39.2207 151.75 39.2207C155.01 39.2207 157.651 41.8737 157.651 45.1477Z" fill="white" stroke="#114659" stroke-miterlimit="10"/>
<path d="M554.424 225.512V251.723C554.424 258.59 548.881 264.158 542.046 264.158H451.268L441.542 279.428V264.158V259.001V225.508C441.542 218.642 447.085 213.074 453.92 213.074H542.042C548.877 213.074 554.42 218.642 554.42 225.508L554.424 225.512Z" fill="#82B1C4"/>
<path d="M531.271 213.078H542.04C548.875 213.078 554.418 218.646 554.418 225.512V251.724C554.418 258.68 548.804 264.322 541.876 264.322H511.439" stroke="#114659" stroke-miterlimit="10"/>
<path d="M503.366 213.078H519.525" stroke="#114659" stroke-miterlimit="10"/>
<path d="M473.865 264.161H451.262L441.536 279.432V264.161V259.005V225.512C441.536 218.646 447.079 213.078 453.914 213.078H496.856" stroke="#114659" stroke-miterlimit="10"/>
<path d="M520.701 245.7C523.884 245.7 526.464 243.109 526.464 239.912C526.464 236.715 523.884 234.123 520.701 234.123C517.518 234.123 514.938 236.715 514.938 239.912C514.938 243.109 517.518 245.7 520.701 245.7Z" fill="white" stroke="#114659" stroke-miterlimit="10"/>
<path d="M500.16 245.7C503.343 245.7 505.923 243.109 505.923 239.912C505.923 236.715 503.343 234.123 500.16 234.123C496.978 234.123 494.398 236.715 494.398 239.912C494.398 243.109 496.978 245.7 500.16 245.7Z" fill="white" stroke="#114659" stroke-miterlimit="10"/>
<path d="M479.631 245.7C482.814 245.7 485.394 243.109 485.394 239.912C485.394 236.715 482.814 234.123 479.631 234.123C476.449 234.123 473.869 236.715 473.869 239.912C473.869 243.109 476.449 245.7 479.631 245.7Z" fill="white" stroke="#114659" stroke-miterlimit="10"/>
<path d="M375.452 156.771H462.966C470.553 156.771 476.704 150.593 476.704 142.972V21.2915C476.704 13.6701 470.553 7.49168 462.966 7.49168H375.452C367.865 7.49168 361.714 13.6701 361.714 21.2915V142.972C361.714 150.593 367.865 156.771 375.452 156.771Z" fill="#ABCDD9" stroke="#114659" stroke-miterlimit="10"/>
<path d="M428.573 61.5763C428.573 57.0787 425.485 54.1338 419.469 54.1338C412.525 54.1338 407.895 58.9383 404.655 66.3808L381.195 52.8916C388.295 35.6829 403.727 27.3125 420.549 27.3125C439.379 27.3125 456.044 38.4743 456.044 58.1638C456.044 81.4192 431.661 87.9299 431.661 98.6278H405.426C405.426 79.8701 428.576 73.3593 428.576 61.5763H428.573Z" fill="#337189" stroke="#114659" stroke-miterlimit="10"/>
<path d="M418.54 140.331C427.404 140.331 434.591 133.112 434.591 124.207C434.591 115.303 427.404 108.084 418.54 108.084C409.675 108.084 402.489 115.303 402.489 124.207C402.489 133.112 409.675 140.331 418.54 140.331Z" fill="#337189" stroke="#114659" stroke-miterlimit="10"/>
<path d="M0.190956 255.445L127.041 255.445L127.041 128.021H0.190956L0.190956 255.445Z" stroke="#114659" stroke-miterlimit="10"/>
<path d="M53.7017 202.827H39.8336L38.0494 208.866H26.502L40.2508 167.014H53.2249L66.9738 208.866H55.486L53.7017 202.827ZM50.9639 193.618L46.736 179.388L42.5715 193.618H50.9639Z" fill="#337189"/>
<path d="M99.5872 178.967V208.861H89.7085V206.11C87.8051 208.382 85.0672 209.699 81.2566 209.699C73.2814 209.699 67.2693 202.881 67.2693 193.916C67.2693 184.95 73.2814 178.133 81.2566 178.133C85.0672 178.133 87.8051 179.45 89.7085 181.721V178.971H99.5872V178.967ZM89.7085 193.916C89.7085 190.028 87.1495 187.398 83.458 187.398C79.7666 187.398 77.2075 190.028 77.2075 193.916C77.2075 197.804 79.7666 200.434 83.458 200.434C87.1495 200.434 89.7085 197.804 89.7085 193.916Z" fill="#337189"/>
<path d="M123.903 238.674H157.637C167.31 238.674 175.152 230.798 175.152 221.082C175.152 211.366 167.31 203.49 157.637 203.49H123.903C114.23 203.49 106.389 211.366 106.389 221.082C106.389 230.798 114.23 238.674 123.903 238.674Z" fill="#ABCDD9" stroke="#114659" stroke-miterlimit="10"/>
<path d="M156.893 235.693C164.924 235.693 171.435 229.152 171.435 221.085C171.435 213.017 164.924 206.477 156.893 206.477C148.861 206.477 142.35 213.017 142.35 221.085C142.35 229.152 148.861 235.693 156.893 235.693Z" fill="#82B1C4"/>
<path d="M533.582 331.09H511.753" stroke="#443459" stroke-miterlimit="10"/>
<path d="M200.812 292.32C199.02 300.275 186.042 317.649 209.305 320.365L200.812 292.32Z" fill="#9C7154" stroke="#010101" stroke-miterlimit="10"/>
<path d="M274.676 292.32C276.467 300.275 289.445 317.649 266.183 320.365L274.676 292.32Z" fill="#9C7154" stroke="#010101" stroke-miterlimit="10"/>
<path d="M223.802 209.339C223.802 209.339 239.365 204.482 261.499 204.482C283.633 204.482 297.095 209.373 297.095 209.373L295.877 227.581L230.369 227.764L223.802 209.339Z" fill="#464545" stroke="#010101" stroke-linejoin="bevel"/>
<path d="M137.645 326.442L136.46 352.122L381.825 349.989L379.813 297.222C379.47 274.255 376.978 264.493 367.04 258.48L265.192 198.412C265.192 198.412 213.977 224.478 211.407 225.514C208.833 226.551 200.727 231.565 197.725 232.949C194.723 234.334 154.322 256.489 154.322 256.489C143.679 261.252 141.456 270.229 140.543 288.927C140.375 292.365 137.645 326.438 137.645 326.438V326.442Z" fill="#464545"/>
<path d="M183.39 328.251L183.189 309.16" stroke="#010101" stroke-miterlimit="10"/>
<path d="M330.765 309.553V328.202" stroke="#010101" stroke-miterlimit="10"/>
<path d="M301.473 218.93C301.473 218.93 300.381 218.945 295.531 216.722C290.778 214.545 290.376 213.179 289.813 211.795C289.251 210.41 289.813 183.548 290.938 161.228L260.591 161.029L230.24 161.228C231.365 183.548 231.927 210.414 231.365 211.795C230.802 213.179 230.489 214.911 225.71 216.82C220.853 218.758 219.709 218.81 219.709 218.81L229.655 230.245C234.769 234.249 240.461 237.13 246.41 238.885C248.515 243.806 260.505 278.466 260.505 278.466C260.505 278.466 271.598 245.609 274.697 238.941C280.683 237.198 286.416 234.317 291.568 230.298L301.476 218.93H301.473Z" fill="#F0D2CE"/>
<path d="M241.864 224.258L233.409 222.799L231.282 236.55L247.638 241.145L241.864 224.258Z" fill="#464545"/>
<path d="M273.39 241.145L279.163 224.258L287.619 222.799L289.742 236.55L273.39 241.145Z" fill="#464545"/>
<path d="M289.524 189.878V206.733C287.779 208.451 286.301 209.824 285.501 210.429C283.013 212.311 279.865 213.718 276.349 214.35C271.339 215.252 263.822 215.252 258.812 214.35C255.296 213.718 252.148 212.311 249.66 210.429C246.866 208.315 235.784 196.827 233.966 193.976C209.422 155.453 279.811 186.855 289.524 189.878Z" fill="#C6A5A7"/>
<path d="M231.442 199.877C231.46 200.696 231.475 201.471 231.49 202.186" stroke="#010101" stroke-miterlimit="10"/>
<path d="M231.353 195.445C231.368 196.093 231.409 197.93 231.412 198.222" stroke="#010101" stroke-miterlimit="10"/>
<path d="M230.238 155.025C230.689 163.957 231.128 183.748 231.374 194.292" stroke="#010101" stroke-miterlimit="10"/>
<path d="M290.94 155.025C289.815 177.345 289.253 210.416 289.815 211.796C290.378 213.181 291.287 214.61 295.809 217.128C300.957 219.998 334.709 239.778 334.709 239.778" stroke="#010101" stroke-miterlimit="10"/>
<path d="M305.835 114.323C306.073 113.312 306.267 112.276 306.408 111.209C308.051 98.7604 302.076 87.5985 293.062 86.2739C290.961 85.9671 288.879 86.2253 286.905 86.955C285.191 80.2309 278.657 74.9287 270.343 73.4807C266.384 69.7314 260.491 67.3516 253.901 67.3516C249.115 67.3516 244.697 68.6088 241.117 70.7304C235.109 73.5293 230.259 80.736 229.067 89.7463C229.03 90.0195 229.018 90.2926 228.989 90.5658C221.192 91.4564 214.294 99.7669 212.841 110.757C212.141 116.063 212.833 121.125 214.547 125.301C211.902 128.246 210.029 132.194 209.433 136.71C208.039 147.262 214.137 156.875 223.044 158.184C231.954 159.49 240.305 151.999 241.698 141.447C242.276 137.065 241.549 132.856 239.877 129.324C242.711 125.769 244.764 120.987 245.479 115.55C245.516 115.277 245.528 115.004 245.557 114.73C250.117 114.21 254.371 111.15 257.406 106.495C259.977 107.363 262.8 107.846 265.762 107.846C268.723 107.846 271.275 107.404 273.744 106.611C272.817 113.986 274.567 120.878 278.028 125.533C278.017 125.615 277.998 125.69 277.987 125.773C276.594 136.324 282.688 145.937 291.598 147.247C300.508 148.553 308.86 141.062 310.253 130.51C311.076 124.276 309.269 118.386 305.831 114.326L305.835 114.323Z" fill="#9C7154"/>
<path d="M291.605 147.247C300.515 148.553 308.867 141.062 310.26 130.51C311.083 124.276 309.276 118.386 305.838 114.326C306.077 113.316 306.27 112.28 306.412 111.213C308.055 98.7643 302.08 87.6024 293.065 86.2778C290.964 85.971 288.882 86.2292 286.908 86.9588C285.194 80.2348 278.661 74.9327 270.347 73.4846C266.387 69.7353 260.494 67.3555 253.905 67.3555" stroke="#010101" stroke-miterlimit="10"/>
<path d="M228.995 90.5664C221.198 91.457 214.3 99.7675 212.847 110.757C212.147 116.063 212.839 121.126 214.553 125.302C211.908 128.247 210.034 132.194 209.438 136.71C208.045 147.262 214.143 156.875 223.05 158.185" stroke="#010101" stroke-miterlimit="10"/>
<path d="M301.651 121.673C301.651 115.858 300.526 110.316 298.496 105.28C296.462 100.239 293.523 95.7044 289.891 91.8915C286.259 88.0823 281.931 84.9953 277.126 82.8662C272.32 80.7334 267.038 79.5547 261.496 79.5547C255.953 79.5547 250.671 80.7334 245.866 82.8662C241.06 84.999 236.736 88.0823 233.1 91.8915C229.468 95.7006 226.526 100.239 224.496 105.28C222.462 110.32 221.34 115.858 221.34 121.673V139.768C221.34 144.647 223.654 149.834 224.592 154.578C225.557 162.275 226.302 168.992 230.359 176.15L238.937 187.454C248.447 197.179 252.895 197.777 261.715 197.777C270.89 197.777 276.496 196.449 284.378 186.694L292.514 175.757C296.116 169.399 295.941 163.577 297.118 156.973C298.406 151.454 301.655 145.489 301.655 139.764V121.669L301.651 121.673Z" fill="#F0D2CE"/>
<path d="M263.192 103.456C272.754 103.456 282.745 96.9007 282.745 96.9007C282.745 96.9007 296.382 104.912 296.382 111.026C296.382 117.14 296.553 145.791 296.553 145.791L301.679 139.767V121.671C301.679 115.857 305.474 108.062 303.258 102.562C301.042 97.0616 283.829 84.4891 278.584 82.1616C273.339 79.8342 267.066 79.5573 261.523 79.5573L261.494 78.5508C255.441 78.5508 249.678 79.838 244.433 82.1616C239.188 84.4891 221.979 97.0616 219.759 102.562C217.543 108.062 219.707 116.092 219.707 121.911L221.338 139.771L226.464 145.795C226.464 145.795 226.635 117.14 226.635 111.03C226.635 104.919 234.536 101.305 234.536 101.305C234.536 101.305 250.263 103.46 259.829 103.46H261.296" fill="#9C7154"/>
<path d="M225.714 138.933C244.644 127.016 234.207 110.903 248.261 98.3721L238.934 90.4844L225.002 102.63L222.112 131.674L225.714 138.933Z" fill="#9C7154"/>
<path d="M225.712 138.936C245.115 127.351 233.568 111.845 247.097 99.3023C252.23 94.5427 258.101 98.0675 262.373 101.053" stroke="#010101" stroke-miterlimit="10"/>
<path d="M253.899 67.3516C249.112 67.3516 244.695 68.6088 241.115 70.7304C235.106 73.5293 230.257 80.736 229.065 89.7463C229.027 90.0195 227.575 107.43 227.545 107.703" stroke="#010101" stroke-miterlimit="10"/>
<path d="M298.273 126.406C285.75 116.805 293.423 100.509 283.064 96.8237L288.625 90.8105L298.791 99.7348L300.899 121.074L298.269 126.406H298.273Z" fill="#9C7154"/>
<path d="M298.273 126.405C285.75 116.804 293.423 100.508 283.064 96.8223" stroke="#010101" stroke-miterlimit="10"/>
<path d="M245.046 145.435C246.757 145.435 248.145 144.042 248.145 142.322C248.145 140.603 246.757 139.209 245.046 139.209C243.334 139.209 241.947 140.603 241.947 142.322C241.947 144.042 243.334 145.435 245.046 145.435Z" fill="#010101"/>
<path d="M237.136 129.898C240.962 128.12 251.537 128.812 251.537 128.812" stroke="#010101" stroke-miterlimit="10"/>
<path d="M278.476 143.797C280.187 143.797 281.575 142.403 281.575 140.684C281.575 138.964 280.187 137.57 278.476 137.57C276.764 137.57 275.377 138.964 275.377 140.684C275.377 142.403 276.764 143.797 278.476 143.797Z" fill="#010101"/>
<path d="M272.174 131.19C272.174 131.19 282.805 130.939 286.82 132.215L272.174 131.19Z" fill="#629AB0"/>
<path d="M272.174 131.19C272.174 131.19 282.805 130.939 286.82 132.215" stroke="#010101" stroke-linejoin="bevel"/>
<path d="M254.498 160.137C256.874 162.06 259.489 163.123 262.234 163.123C264.98 163.123 267.591 162.06 269.971 160.137" stroke="#010101" stroke-miterlimit="10"/>
<path d="M214.514 143.807C216.25 137.824 222.705 137.872 227.946 139.856C233.183 141.835 236.026 148.293 234.29 154.276C232.554 160.26 226.903 163.504 221.666 161.521C216.429 159.541 212.782 149.79 214.518 143.807H214.514Z" fill="#F0D2CE"/>
<path d="M225.977 139.13C225.228 138.947 224.465 138.812 223.705 138.734C219.704 138.326 215.759 139.512 214.512 143.807C212.776 149.791 216.423 159.538 221.66 161.521L224.755 162.311" stroke="#010101" stroke-miterlimit="10"/>
<path d="M226.442 138.668L226.613 147.031" stroke="#010101" stroke-miterlimit="10"/>
<path d="M307.495 143.807C305.76 137.824 299.304 137.872 294.063 139.856C288.826 141.835 285.984 148.293 287.72 154.276C289.455 160.26 295.106 163.504 300.343 161.521C305.581 159.541 309.228 149.79 307.492 143.807H307.495Z" fill="#F0D2CE"/>
<path d="M296.528 139.013C301.05 138.041 306.068 138.871 307.498 143.807C309.234 149.79 305.587 159.537 300.35 161.52L298.044 162.362" stroke="#010101" stroke-miterlimit="10"/>
<path d="M296.481 137.484L296.648 147.03" stroke="#010101" stroke-miterlimit="10"/>
<path d="M261.913 168.78C270.916 168.821 278.936 166.493 280.292 166.493C283.421 166.493 285.5 170.523 286.878 172.319C288.349 169.374 292.186 167.395 294.32 160.518C294.749 156.641 296.06 141.973 296.373 142.598C297.278 144.398 298.932 162.542 298.932 162.542C298.932 162.542 293.799 190.299 292.923 191.679C291.355 194.157 279.454 204.14 277.025 205.977C274.865 207.612 272.127 208.836 269.072 209.386C264.718 210.168 258.188 210.168 253.834 209.386C250.775 208.836 248.041 207.612 245.881 205.977C243.452 204.14 230.318 194.157 228.75 191.679C227.874 190.299 223.974 162.542 223.974 162.542C223.974 162.542 225.628 144.398 226.533 142.598C226.846 141.973 229.822 156.259 230.251 160.136C232.381 167.013 239.287 170.168 240.759 173.113C242.137 171.313 244.216 167.287 247.345 167.287C248.701 167.287 251.99 168.821 260.993 168.78H261.928H261.913Z" fill="#9C7154" stroke="#010101" stroke-miterlimit="10"/>
<path d="M272.006 174.654C269.004 175.201 265.405 175.631 261.33 175.676C257.486 175.717 254.067 175.406 251.176 174.972" stroke="#010101" stroke-miterlimit="10"/>
<path d="M268.549 102.902C276.677 101.462 282.753 96.8968 282.753 96.8968L284.6 95.7031" stroke="#010101" stroke-miterlimit="10"/>
<path d="M264.237 103.33C266.781 103.11 266.573 99.1434 269.966 98.7617" stroke="#010101" stroke-miterlimit="10"/>
<path d="M244.989 102.613C249.973 103.448 254.577 103.489 258.712 103.425" stroke="#010101" stroke-miterlimit="10"/>
<path d="M264.202 268.09L279.135 224.501L287.62 222.799" stroke="#010101" stroke-miterlimit="10"/>
<path d="M297.097 209.346C293.044 212.609 279.262 224.328 279.262 224.328L288.179 243.576C288.179 243.576 307.791 229.697 308.145 222.966C303.906 219.722 300.803 213.836 297.097 209.349V209.346Z" fill="#464545" stroke="#010101" stroke-linejoin="bevel"/>
<path d="M256.826 268.09L241.893 224.501L233.411 222.799" stroke="#010101" stroke-miterlimit="10"/>
<path d="M223.936 209.346C227.989 212.609 241.772 224.328 241.772 224.328L232.854 243.576C232.854 243.576 213.242 229.697 212.888 222.966C215.79 219.467 220.152 212.186 223.936 209.349V209.346Z" fill="#464545" stroke="#010101" stroke-linejoin="bevel"/>
<path d="M329.846 331.084H192.528C188.986 331.084 186.11 328.195 186.11 324.637V321.4H336.264V324.637C336.264 328.195 333.388 331.084 329.846 331.084Z" fill="#D3E5EB" stroke="#010101" stroke-miterlimit="10"/>
<path d="M321.897 331.084H200.471V261.359C200.471 256.472 204.423 252.502 209.288 252.502H313.08C317.945 252.502 321.897 256.472 321.897 261.359V331.084Z" fill="#D3E5EB" stroke="#010101" stroke-miterlimit="10"/>
<path d="M254.352 284.822C253.156 286.005 252.262 287.494 251.801 289.163C251.57 290.001 251.443 290.88 251.443 291.793" fill="#CFBFDE"/>
<path d="M254.352 284.822C253.156 286.005 252.262 287.494 251.801 289.163C251.57 290.001 251.443 290.88 251.443 291.793" stroke="#114659" stroke-miterlimit="10"/>
<path d="M256.669 300.463C258.017 301.174 259.555 301.578 261.187 301.578C266.566 301.578 270.924 297.196 270.924 291.797C270.924 286.394 266.562 282.016 261.187 282.016" stroke="#114659" stroke-miterlimit="10"/>
<path d="M66.0505 368.896L455.493 368.896V331.089L66.0505 331.089V368.896Z" fill="#ABCDD9"/>
<path d="M479.969 331.09H8.16772" stroke="#114659" stroke-miterlimit="10"/>
</g>
<defs>
<clipPath id="clip0_1127_14804">
<rect width="555" height="333" fill="white"/>
</clipPath>
</defs>
</svg>
