<svg width="356" height="335" viewBox="0 0 356 335" fill="none" xmlns="http://www.w3.org/2000/svg">
<g clip-path="url(#clip0_858_21714)">
<path d="M-286.312 370.748L441.034 370.748L441.034 -35.7476L-286.312 -35.7476V370.748Z" fill="#ABCDD9"/>
<path d="M-134.88 217.873C-134.88 270.787 -115.454 319.12 -83.4007 356.016C-45.2979 399.874 10.6438 326.117 72.9961 326.117C136.347 326.117 193.078 398.983 231.207 353.9C262.176 317.283 280.872 269.78 280.872 217.873C280.872 102.062 187.804 8.17944 72.9961 8.17944C-41.8113 8.17944 -134.88 102.058 -134.88 217.873Z" fill="#82B1C4"/>
<path d="M355.424 226.761V253.082C355.424 259.977 349.881 265.569 343.046 265.569H252.268L242.542 280.903V265.569V260.391V226.757C242.542 219.862 248.085 214.271 254.92 214.271H343.042C349.877 214.271 355.42 219.862 355.42 226.757L355.424 226.761Z" fill="#82B1C4"/>
<path d="M332.271 214.273H343.04C349.875 214.273 355.418 219.865 355.418 226.76V253.081C355.418 260.067 349.805 265.733 342.876 265.733H312.439" stroke="#114659" stroke-miterlimit="10"/>
<path d="M304.366 214.273H320.525" stroke="#114659" stroke-miterlimit="10"/>
<path d="M274.865 265.572H252.262L242.536 280.906V265.572V260.394V226.76C242.536 219.865 248.079 214.273 254.914 214.273H297.856" stroke="#114659" stroke-miterlimit="10"/>
<path d="M321.701 247.033C324.884 247.033 327.464 244.431 327.464 241.22C327.464 238.01 324.884 235.407 321.701 235.407C318.518 235.407 315.938 238.01 315.938 241.22C315.938 244.431 318.518 247.033 321.701 247.033Z" fill="white" stroke="#114659" stroke-miterlimit="10"/>
<path d="M301.16 247.033C304.343 247.033 306.923 244.431 306.923 241.22C306.923 238.01 304.343 235.407 301.16 235.407C297.977 235.407 295.397 238.01 295.397 241.22C295.397 244.431 297.977 247.033 301.16 247.033Z" fill="white" stroke="#114659" stroke-miterlimit="10"/>
<path d="M280.632 247.033C283.814 247.033 286.394 244.431 286.394 241.22C286.394 238.01 283.814 235.407 280.632 235.407C277.449 235.407 274.869 238.01 274.869 241.22C274.869 244.431 277.449 247.033 280.632 247.033Z" fill="white" stroke="#114659" stroke-miterlimit="10"/>
<path d="M176.452 157.73H263.966C271.554 157.73 277.704 151.526 277.704 143.872V21.6807C277.704 14.0272 271.554 7.82283 263.966 7.82283H176.452C168.865 7.82283 162.714 14.0272 162.714 21.6807V143.872C162.714 151.526 168.865 157.73 176.452 157.73Z" fill="#ABCDD9" stroke="#114659" stroke-miterlimit="10"/>
<path d="M229.572 62.1361C229.572 57.6196 226.484 54.6624 220.468 54.6624C213.525 54.6624 208.895 59.4871 205.654 66.9608L182.194 53.4149C189.294 36.1339 204.727 27.7283 221.549 27.7283C240.378 27.7283 257.044 38.937 257.044 58.7093C257.044 82.0624 232.66 88.6006 232.66 99.3434H206.425C206.425 80.5068 229.576 73.9687 229.576 62.1361H229.572Z" fill="#337189" stroke="#114659" stroke-miterlimit="10"/>
<path d="M219.54 141.221C228.405 141.221 235.591 133.972 235.591 125.03C235.591 116.088 228.405 108.839 219.54 108.839C210.675 108.839 203.489 116.088 203.489 125.03C203.489 133.972 210.675 141.221 219.54 141.221Z" fill="#337189" stroke="#114659" stroke-miterlimit="10"/>
<path d="M334.581 332.783H312.753" stroke="#443459" stroke-miterlimit="10"/>
<path d="M1.81115 293.85C0.0194364 301.838 -12.9584 319.284 10.3041 322.012L1.81115 293.85Z" fill="#9C7154" stroke="#010101" stroke-miterlimit="10"/>
<path d="M75.6756 293.85C77.4673 301.838 90.4451 319.284 67.1826 322.012L75.6756 293.85Z" fill="#9C7154" stroke="#010101" stroke-miterlimit="10"/>
<path d="M24.8018 210.519C24.8018 210.519 40.3647 205.642 62.4985 205.642C84.6323 205.642 98.0944 210.553 98.0944 210.553L96.8763 228.837L31.3689 229.021L24.8018 210.519Z" fill="#464545" stroke="#010101" stroke-linejoin="bevel"/>
<path d="M-61.3555 328.113L-62.54 353.901L182.824 351.759L180.813 298.771C180.47 275.707 177.978 265.903 168.04 259.865L66.1914 199.545C66.1914 199.545 14.9767 225.72 12.4065 226.761C9.8325 227.802 1.72697 232.837 -1.27536 234.227C-4.27769 235.617 -44.6788 257.866 -44.6788 257.866C-55.321 262.649 -57.5448 271.664 -58.4575 290.44C-58.6251 293.893 -61.3555 328.109 -61.3555 328.109V328.113Z" fill="#464545"/>
<path d="M131.765 311.155V329.882" stroke="#010101" stroke-miterlimit="10"/>
<path d="M102.472 220.15C102.472 220.15 101.381 220.165 96.5309 217.933C91.7778 215.746 91.3755 214.374 90.813 212.984C90.2505 211.594 90.813 184.618 91.938 162.205L61.5906 162.005L31.2395 162.205C32.3644 184.618 32.9269 211.598 32.3644 212.984C31.802 214.374 31.4891 216.114 26.7099 218.03C21.8525 219.977 20.709 220.029 20.709 220.029L30.6547 231.513C35.7691 235.533 41.4608 238.426 47.4096 240.189C49.5142 245.13 61.5049 279.936 61.5049 279.936C61.5049 279.936 72.5979 246.941 75.6971 240.245C81.6831 238.494 87.4158 235.601 92.5675 231.565L102.476 220.15H102.472Z" fill="#F0D2CE"/>
<path d="M42.8639 225.5L34.4082 224.034L32.2812 237.843L48.6376 242.457L42.8639 225.5Z" fill="#464545"/>
<path d="M74.3887 242.457L80.1624 225.5L88.6181 224.034L90.7413 237.843L74.3887 242.457Z" fill="#464545"/>
<path d="M90.5239 190.975V207.901C88.7783 209.627 87.3002 211.005 86.5007 211.613C84.0124 213.503 80.8649 214.915 77.3485 215.55C72.3384 216.456 64.8214 216.456 59.8113 215.55C56.2949 214.915 53.1473 213.503 50.659 211.613C47.8653 209.489 36.7835 197.954 34.9657 195.091C10.4218 156.405 80.8108 187.94 90.5239 190.975Z" fill="#C6A5A7"/>
<path d="M32.4414 201.016C32.46 201.839 32.4749 202.617 32.4897 203.335" stroke="#010101" stroke-miterlimit="10"/>
<path d="M32.3516 196.567C32.3664 197.217 32.4074 199.062 32.4111 199.355" stroke="#010101" stroke-miterlimit="10"/>
<path d="M31.2373 155.977C31.688 164.947 32.1276 184.82 32.3734 195.409" stroke="#010101" stroke-miterlimit="10"/>
<path d="M91.9394 155.977C90.8144 178.391 90.2519 211.6 90.8144 212.987C91.3769 214.377 92.2858 215.813 96.8079 218.341C101.956 221.223 135.708 241.086 135.708 241.086" stroke="#010101" stroke-miterlimit="10"/>
<path d="M106.834 115.103C107.072 114.088 107.266 113.047 107.408 111.977C109.05 99.4752 103.075 88.2664 94.061 86.9363C91.9601 86.6281 89.8779 86.8874 87.9037 87.6201C86.1902 80.8678 79.6566 75.5434 71.3424 74.0892C67.3828 70.3241 61.4899 67.9343 54.9004 67.9343C50.1138 67.9343 45.696 69.1969 42.1163 71.3274C36.1079 74.138 31.258 81.3751 30.066 90.4233C30.0287 90.6976 30.0176 90.9719 29.9878 91.2462C22.1914 92.1405 15.2927 100.486 13.84 111.522C13.1397 116.85 13.8326 121.934 15.546 126.127C12.9013 129.085 11.0277 133.049 10.4317 137.584C9.03852 148.181 15.1363 157.834 24.0427 159.149C32.9528 160.46 41.3042 152.938 42.6974 142.341C43.2748 137.941 42.5484 133.714 40.8759 130.167C43.7106 126.597 45.763 121.795 46.4782 116.335C46.5155 116.061 46.5266 115.787 46.5564 115.512C51.1158 114.99 55.3697 111.916 58.4056 107.242C60.9758 108.114 63.7994 108.599 66.7607 108.599C69.7221 108.599 72.2737 108.155 74.7433 107.359C73.8158 114.765 75.5665 121.686 79.027 126.36C79.0159 126.443 78.9972 126.518 78.9861 126.601C77.5929 137.197 83.687 146.85 92.5971 148.166C101.507 149.477 109.859 141.954 111.252 131.358C112.075 125.098 110.268 119.184 106.83 115.107L106.834 115.103Z" fill="#9C7154"/>
<path d="M92.6038 148.165C101.514 149.476 109.865 141.953 111.258 131.357C112.082 125.097 110.275 119.183 106.837 115.106C107.075 114.091 107.269 113.05 107.411 111.979C109.053 99.4781 103.078 88.2694 94.064 86.9392C91.9631 86.6311 89.8808 86.8903 87.9066 87.623C86.1931 80.8707 79.6595 75.5463 71.3454 74.0921C67.3857 70.3271 61.4928 67.9373 54.9033 67.9373" stroke="#010101" stroke-miterlimit="10"/>
<path d="M29.9936 91.2461C22.1973 92.1404 15.2986 100.486 13.8459 111.522C13.1456 116.85 13.8384 121.934 15.5519 126.127C12.9072 129.085 11.0335 133.049 10.4375 137.584C9.04438 148.18 15.1422 157.834 24.0486 159.149" stroke="#010101" stroke-miterlimit="10"/>
<path d="M102.65 122.483C102.65 116.644 101.525 111.079 99.4953 106.021C97.4614 100.96 94.5224 96.4056 90.8906 92.5766C87.2587 88.7514 82.9303 85.6515 78.1251 83.5134C73.3199 81.3716 68.0378 80.188 62.4951 80.188C56.9523 80.188 51.6703 81.3716 46.8651 83.5134C42.0599 85.6552 37.7352 88.7514 34.0996 92.5766C30.4677 96.4018 27.525 100.96 25.4949 106.021C23.4611 111.083 22.3398 116.644 22.3398 122.483V140.654C22.3398 145.554 24.653 150.762 25.5917 155.527C26.5565 163.256 27.3015 170.001 31.358 177.189L39.9366 188.541C49.4465 198.307 53.8941 198.908 62.7149 198.908C71.8895 198.908 77.4955 197.574 85.3776 187.778L93.513 176.795C97.115 170.41 96.9399 164.564 98.117 157.932C99.4059 152.389 102.654 146.4 102.654 140.651V122.479L102.65 122.483Z" fill="#F0D2CE"/>
<path d="M64.1917 104.191C73.7537 104.191 83.7441 97.6082 83.7441 97.6082C83.7441 97.6082 97.3812 105.653 97.3812 111.793C97.3812 117.933 97.5526 146.704 97.5526 146.704L102.678 140.655V122.483C102.678 116.644 106.474 108.817 104.258 103.293C102.041 97.7698 84.8281 85.1444 79.5833 82.8072C74.3386 80.47 68.0657 80.1919 62.5229 80.1919L62.4931 79.1812C56.44 79.1812 50.6775 80.4738 45.4328 82.8072C40.188 85.1444 22.9786 97.7698 20.7585 103.293C18.5422 108.817 20.7064 116.881 20.7064 122.724L22.3379 140.658L27.4635 146.708C27.4635 146.708 27.6348 117.933 27.6348 111.797C27.6348 105.661 35.5355 102.031 35.5355 102.031C35.5355 102.031 51.2623 104.195 60.8281 104.195H62.2957" fill="#9C7154"/>
<path d="M26.7124 139.818C45.6427 127.85 35.2054 111.67 49.2597 99.0862L39.9324 91.1653L26.0009 103.362L23.1104 132.528L26.7124 139.818Z" fill="#9C7154"/>
<path d="M26.7109 139.82C46.1143 128.186 34.5669 112.615 48.096 100.02C53.229 95.2403 59.0996 98.7799 63.3722 101.778" stroke="#010101" stroke-miterlimit="10"/>
<path d="M54.8981 67.9343C50.1116 67.9343 45.6937 69.1969 42.114 71.3274C36.1056 74.138 31.2557 81.3751 30.0637 90.4233C30.0265 90.6976 28.5737 108.181 28.5439 108.456" stroke="#010101" stroke-miterlimit="10"/>
<path d="M99.2716 127.237C86.7482 117.595 94.4217 101.231 84.0625 97.5301L89.6239 91.4917L99.7894 100.453L101.898 121.883L99.2679 127.237H99.2716Z" fill="#9C7154"/>
<path d="M99.2716 127.236C86.7482 117.594 94.4217 101.23 84.0625 97.5286" stroke="#010101" stroke-miterlimit="10"/>
<path d="M46.0445 146.345C47.7561 146.345 49.1437 144.945 49.1437 143.219C49.1437 141.492 47.7561 140.093 46.0445 140.093C44.3329 140.093 42.9453 141.492 42.9453 143.219C42.9453 144.945 44.3329 146.345 46.0445 146.345Z" fill="#010101"/>
<path d="M38.1348 130.743C41.9603 128.958 52.5355 129.653 52.5355 129.653" stroke="#010101" stroke-miterlimit="10"/>
<path d="M79.4752 144.7C81.1868 144.7 82.5743 143.301 82.5743 141.574C82.5743 139.847 81.1868 138.448 79.4752 138.448C77.7635 138.448 76.376 139.847 76.376 141.574C76.376 143.301 77.7635 144.7 79.4752 144.7Z" fill="#010101"/>
<path d="M73.1729 132.042C73.1729 132.042 83.8039 131.79 87.8195 133.071L73.1729 132.042Z" fill="#629AB0"/>
<path d="M73.1729 132.042C73.1729 132.042 83.8039 131.79 87.8195 133.071" stroke="#010101" stroke-linejoin="bevel"/>
<path d="M55.4971 161.109C57.8736 163.041 60.4885 164.108 63.2339 164.108C65.9792 164.108 68.5904 163.041 70.9706 161.109" stroke="#010101" stroke-miterlimit="10"/>
<path d="M15.5127 144.711C17.2485 138.702 23.7039 138.751 28.9449 140.743C34.1822 142.73 37.0244 149.216 35.2886 155.224C33.5527 161.233 27.9019 164.49 22.6646 162.499C17.4273 160.511 13.7805 150.719 15.5164 144.711H15.5127Z" fill="#F0D2CE"/>
<path d="M26.976 140.015C26.2273 139.831 25.4637 139.696 24.7038 139.617C20.7031 139.208 16.7584 140.399 15.5105 144.712C13.7747 150.721 17.4214 160.509 22.6587 162.501L25.7542 163.293" stroke="#010101" stroke-miterlimit="10"/>
<path d="M27.4404 139.55L27.6115 147.948" stroke="#010101" stroke-miterlimit="10"/>
<path d="M108.494 144.711C106.759 138.702 100.303 138.751 95.0622 140.743C89.8249 142.73 86.9828 149.216 88.7186 155.224C90.4544 161.233 96.1052 164.49 101.343 162.499C106.58 160.511 110.227 150.719 108.491 144.711H108.494Z" fill="#F0D2CE"/>
<path d="M97.5273 139.897C102.049 138.92 107.067 139.754 108.497 144.71C110.233 150.719 106.586 160.507 101.349 162.499L99.0434 163.344" stroke="#010101" stroke-miterlimit="10"/>
<path d="M97.4795 138.361L97.6469 147.947" stroke="#010101" stroke-miterlimit="10"/>
<path d="M62.9125 169.79C71.9158 169.831 79.9356 167.494 81.2915 167.494C84.4205 167.494 86.499 171.541 87.8773 173.344C89.3486 170.387 93.1854 168.399 95.3198 161.493C95.7482 157.6 97.0594 142.87 97.3723 143.498C98.2774 145.305 99.9313 163.526 99.9313 163.526C99.9313 163.526 94.7983 191.399 93.9229 192.786C92.3547 195.273 80.4534 205.298 78.0247 207.143C75.8642 208.785 73.1264 210.014 70.0719 210.566C65.7174 211.352 59.1875 211.352 54.833 210.566C51.7748 210.014 49.0407 208.785 46.8802 207.143C44.4515 205.298 31.3173 195.273 29.7491 192.786C28.8737 191.399 24.9736 163.526 24.9736 163.526C24.9736 163.526 26.6275 145.305 27.5327 143.498C27.8456 142.87 30.8219 157.217 31.2502 161.11C33.3809 168.016 40.287 171.184 41.7584 174.141C43.1366 172.333 45.2151 168.29 48.3441 168.29C49.7 168.29 52.9892 169.831 61.9924 169.79H62.9274H62.9125Z" fill="#9C7154" stroke="#010101" stroke-miterlimit="10"/>
<path d="M73.0049 175.688C70.0025 176.237 66.4042 176.669 62.3291 176.714C58.4849 176.755 55.0654 176.443 52.1748 176.007" stroke="#010101" stroke-miterlimit="10"/>
<path d="M69.5488 103.635C77.6767 102.188 83.7521 97.6039 83.7521 97.6039L85.5997 96.4053" stroke="#010101" stroke-miterlimit="10"/>
<path d="M65.2363 104.064C67.7805 103.842 67.5719 99.8593 70.9654 99.4761" stroke="#010101" stroke-miterlimit="10"/>
<path d="M45.9893 103.344C50.9733 104.182 55.5773 104.223 59.7121 104.159" stroke="#010101" stroke-miterlimit="10"/>
<path d="M65.2012 269.516L80.1346 225.744L88.6201 224.034" stroke="#010101" stroke-miterlimit="10"/>
<path d="M98.0959 210.525C94.0432 213.802 80.2607 225.571 80.2607 225.571L89.1783 244.899C89.1783 244.899 108.79 230.963 109.144 224.203C104.905 220.945 101.802 215.034 98.0959 210.529V210.525Z" fill="#464545" stroke="#010101" stroke-linejoin="bevel"/>
<path d="M57.8253 269.516L42.8919 225.744L34.4102 224.034" stroke="#010101" stroke-miterlimit="10"/>
<path d="M24.936 210.525C28.9888 213.802 42.7712 225.571 42.7712 225.571L33.8536 244.899C33.8536 244.899 14.2416 230.963 13.8877 224.203C16.7895 220.69 21.1514 213.377 24.936 210.529V210.525Z" fill="#464545" stroke="#010101" stroke-linejoin="bevel"/>
<path d="M130.845 332.777H-6.47293C-10.0154 332.777 -12.8911 329.876 -12.8911 326.302V323.052H137.263V326.302C137.263 329.876 134.387 332.777 130.845 332.777Z" fill="#D3E5EB" stroke="#010101" stroke-miterlimit="10"/>
<path d="M122.897 332.777H1.4707L1.4707 262.758C1.4707 257.851 5.42291 253.864 10.2877 253.864H114.08C118.945 253.864 122.897 257.851 122.897 262.758L122.897 332.777Z" fill="#D3E5EB" stroke="#010101" stroke-miterlimit="10"/>
<path d="M55.3516 286.321C54.1559 287.508 53.2619 289.004 52.8 290.68C52.569 291.521 52.4424 292.404 52.4424 293.321" fill="#CFBFDE"/>
<path d="M55.3516 286.321C54.1559 287.508 53.2619 289.004 52.8 290.68C52.569 291.521 52.4424 292.404 52.4424 293.321" stroke="#114659" stroke-miterlimit="10"/>
<path d="M57.668 302.026C59.0164 302.74 60.5548 303.146 62.1864 303.146C67.5652 303.146 71.9235 298.746 71.9235 293.324C71.9235 287.898 67.5615 283.501 62.1864 283.501" stroke="#114659" stroke-miterlimit="10"/>
<path d="M-132.949 370.748L256.493 370.748V332.782L-132.949 332.782V370.748Z" fill="#ABCDD9"/>
<path d="M280.97 332.783H-190.832" stroke="#114659" stroke-miterlimit="10"/>
</g>
<defs>
<clipPath id="clip0_858_21714">
<rect width="555" height="334.4" fill="white" transform="translate(-199 0.300049)"/>
</clipPath>
</defs>
</svg>
